# xmcd
#
# Track frame offsets:
#	150
#	13652
#	29337
#	47240
#
# Disc length: 886 seconds
#
# Revision: 0
# Processed by: cddbd v1.5.1PL2 Copyright (c) Steve Scherf et al.
# Submitted via: dBpowerAMP V4.0
#
DISCID=2b037404
DTITLE=Gone Baby Gone - Gone Baby Gone EP
DYEAR=2005
DGENRE=Power Punk
TTITLE0=Three Thousand Miles
TTITLE1=Always
TTITLE2=How Come I Never Get Anything I Want
TTITLE3=More
EXTD=gonebabygone.net
EXTT0=
EXTT1=
EXTT2=
EXTT3=
PLAYORDER=
